<svg xmlns="http://www.w3.org/2000/svg" data-name="Layer 1" viewBox="0 0 64 80" x="0px" y="0px"><path fill="green" d="M61.2461,60.2505V28.0322h-2V60.2505H55.2334V31.8369h-2V60.2505H49.2217V35.93h-2V60.2505H43.209V35.93h-2V60.2505H37.1973V35.93h-2V60.2505H31.1846V35.93h-2V60.2505H25.1729V41.9092h-2V60.2505H19.16V44.0532h-2V60.2505H13.1484V47.8892h-2V60.2505H7.1357v-9.09h-2v9.09H3V1.75H1v59.501a1,1,0,0,0,1,1H63v-2Z"/><path fill="red" d="M30.1846,28.95a1.0017,1.0017,0,0,0-.7276.314l-8.292,8.791-5.4668-4.584a.999.999,0,0,0-1.43.15l-8.92,11.395,1.5743,1.2324,8.2832-10.58,5.3964,4.5254a1,1,0,0,0,1.37-.08L30.6162,30.95H48.2217a1.0009,1.0009,0,0,0,.7246-.3106L60.9707,18.0034l-1.4492-1.3789L47.793,28.95Z"/><path d="M5,34.34H6.0967v2.5047h2V34.34H9.2a1.0029,1.0029,0,0,0,1-1V29.13a1.0029,1.0029,0,0,0-1-1H8.0967v-1.3h-2v1.3H5a1.0029,1.0029,0,0,0-1,1v4.21A1.0029,1.0029,0,0,0,5,34.34Z"/><path d="M13.26,22.4h1.1v1.94h2V22.4h1.1a1.0029,1.0029,0,0,0,1-1V17.19a1.0029,1.0029,0,0,0-1-1h-1.1V14.86h-2v1.33h-1.1a1.0029,1.0029,0,0,0-1,1V21.4A1.0029,1.0029,0,0,0,13.26,22.4Z"/><path d="M20.68,15.16h1.0993v4.45h2V15.16H24.88a1.0029,1.0029,0,0,0,1-1V9.95a1.0029,1.0029,0,0,0-1-1H23.7793V3.6729h-2V8.95H20.68a1.0029,1.0029,0,0,0-1,1v4.21A1.0029,1.0029,0,0,0,20.68,15.16Z"/><path d="M28.92,17.54h1.09v8.94h2V17.54h1.1a.9965.9965,0,0,0,1-1V12.33a.9965.9965,0,0,0-1-1h-1.1V9.95h-2v1.38H28.92a.9965.9965,0,0,0-1,1v4.21A.9965.9965,0,0,0,28.92,17.54Z"/><path d="M37.26,26.74h1.09v1.34h2V26.74h1.1a1.0029,1.0029,0,0,0,1-1V21.53a1.0029,1.0029,0,0,0-1-1h-1.1V1.75h-2V20.53H37.26a.9965.9965,0,0,0-1,1v4.21A.9965.9965,0,0,0,37.26,26.74Z"/><path d="M44.54,18.54h1.09v5.75h2V18.54h1.1a.9965.9965,0,0,0,1-1V10.12a.9965.9965,0,0,0-1-1h-1.1V7.76h-2V9.12H44.54a1.0029,1.0029,0,0,0-1,1v7.42A1.0029,1.0029,0,0,0,44.54,18.54Z"/><path d="M51.82,12.19h1.1v1.89h2V12.19h1.1a1.0029,1.0029,0,0,0,1-1V3.77a1.0029,1.0029,0,0,0-1-1h-1.1V1.75h-2V2.77h-1.1a1.0029,1.0029,0,0,0-1,1v7.42A1.0029,1.0029,0,0,0,51.82,12.19Z"/></svg>